<svg width="34" height="29" viewBox="0 0 34 29" fill="none" xmlns="http://www.w3.org/2000/svg">
<path d="M27.0737 22.699H10.1698C8.86011 22.699 7.82767 21.7355 7.71418 20.4081C7.63705 19.5014 8.01058 18.687 8.66618 18.1885L6.0166 6.11678C5.94351 5.78454 6.02284 5.43698 6.23183 5.17126C6.44081 4.90554 6.75741 4.75119 7.09164 4.75119H31.9538C32.3108 4.75119 32.6458 4.92722 32.8522 5.22321C33.059 5.5192 33.1115 5.8989 32.994 6.24161L30.1299 14.5921C29.7292 15.7619 28.7349 16.6211 27.5357 16.8341L10.1305 19.9289C10.1265 19.9293 10.1228 19.9301 10.1188 19.9308C10.035 19.9458 9.88997 19.9779 9.91017 20.2145C9.93074 20.4566 10.0865 20.4566 10.1702 20.4566H27.0741C27.6827 20.4566 28.1759 20.9586 28.1759 21.5778C28.1759 22.1971 27.6823 22.699 27.0737 22.699Z" fill="white"/>
<path d="M10.3759 29C11.6944 29 12.7632 27.9124 12.7632 26.5708C12.7632 25.2292 11.6944 24.1416 10.3759 24.1416C9.05746 24.1416 7.98865 25.2292 7.98865 26.5708C7.98865 27.9124 9.05746 29 10.3759 29Z" fill="white"/>
<path d="M25.0819 29C26.4004 29 27.4692 27.9124 27.4692 26.5708C27.4692 25.2292 26.4004 24.1416 25.0819 24.1416C23.7634 24.1416 22.6946 25.2292 22.6946 26.5708C22.6946 27.9124 23.7634 29 25.0819 29Z" fill="white"/>
<path d="M7.09086 6.9939C6.5862 6.9939 6.13113 6.63886 6.01654 6.11677L5.51152 3.81649C5.30804 2.88965 4.51397 2.24235 3.58032 2.24235H1.10186C0.493267 2.24235 0 1.74044 0 1.12118C0 0.501914 0.493267 0 1.10186 0H3.58069C5.55376 0 7.23226 1.36858 7.66236 3.32765L8.16738 5.62793C8.29997 6.23225 7.92607 6.83171 7.33217 6.96662C7.25099 6.98493 7.17019 6.9939 7.09086 6.9939Z" fill="white"/>
</svg>
