<svg width="9" height="7" viewBox="0 0 9 7" fill="none" xmlns="http://www.w3.org/2000/svg">
<path d="M5.71654 5.06593L1.60087 0.0935082C1.49791 -0.0308846 1.33098 -0.0308846 1.22803 0.0935082L0.0772181 1.48379C-0.0257394 1.60819 -0.0257394 1.80987 0.0772181 1.93426L4.19289 6.9068C4.29585 7.0312 4.46278 7.0312 4.56574 6.9068L5.71654 5.5164C5.8195 5.39212 5.8195 5.19044 5.71654 5.06593Z" fill="white"/>
<path d="M3.03352 5.06583L7.14921 0.0932946C7.25217 -0.0310982 7.4191 -0.0310982 7.52206 0.0932946L8.67287 1.4837C8.77583 1.60809 8.77583 1.80977 8.67287 1.93417L4.55718 6.90671C4.45422 7.0311 4.28729 7.0311 4.18433 6.90671L3.03352 5.51642C2.93056 5.39203 2.93056 5.19034 3.03352 5.06583Z" fill="white"/>
</svg>
