<svg width="29" height="27" viewBox="0 0 29 27" fill="none" xmlns="http://www.w3.org/2000/svg">
<path d="M13.5243 0.0219715C8.89204 0.352743 5.12798 4.54538 4.82583 9.71072C4.628 13.0962 5.88258 16.163 7.96244 18.212C8.11676 18.3638 8.3183 18.4429 8.52384 18.4429C8.9371 18.4429 9.29851 18.1149 9.36455 17.6602C9.73645 15.0926 11.7305 13.131 14.1381 13.131C12.6601 13.131 11.4617 11.7945 11.4617 10.1461V8.79344C11.4617 7.2036 12.5376 5.81546 13.9601 5.71255C15.519 5.6 16.8149 6.97678 16.8149 8.69121V10.1461C16.8149 11.7945 15.6168 13.131 14.1384 13.131C16.5461 13.131 18.5401 15.0926 18.912 17.6602C18.9778 18.1153 19.3395 18.4429 19.7527 18.4429H19.7537C19.9589 18.4429 20.1598 18.3641 20.3135 18.2127C22.2499 16.3055 23.4711 13.5161 23.4711 10.4084C23.4714 4.43318 18.9568 -0.365936 13.5243 0.0219715Z" fill="white"/>
<path d="M24.6534 19.4755H3.73532C1.87799 19.4755 0.284526 21.096 0.250577 23.1674C0.21601 25.2773 1.73941 27 3.6236 27H24.5416C26.399 27 27.9924 25.3795 28.0264 23.3081C28.0607 21.1979 26.5373 19.4755 24.6534 19.4755ZM5.86827 24.0981C5.44205 24.0981 5.09669 23.7129 5.09669 23.2376C5.09669 22.7622 5.44205 22.3771 5.86827 22.3771C6.29449 22.3771 6.63985 22.7622 6.63985 23.2376C6.63985 23.7129 6.29449 24.0981 5.86827 24.0981ZM10.0033 24.0981C9.57708 24.0981 9.23172 23.7129 9.23172 23.2376C9.23172 22.7622 9.57708 22.3771 10.0033 22.3771C10.4295 22.3771 10.7749 22.7622 10.7749 23.2376C10.7749 23.7129 10.4295 24.0981 10.0033 24.0981ZM14.1383 24.0981C13.7121 24.0981 13.3668 23.7129 13.3668 23.2376C13.3668 22.7622 13.7121 22.3771 14.1383 22.3771C14.5646 22.3771 14.9099 22.7622 14.9099 23.2376C14.9099 23.7129 14.5646 24.0981 14.1383 24.0981ZM18.2734 24.0981C17.8471 24.0981 17.5018 23.7129 17.5018 23.2376C17.5018 22.7622 17.8471 22.3771 18.2734 22.3771C18.6996 22.3771 19.0449 22.7622 19.0449 23.2376C19.0449 23.7129 18.6996 24.0981 18.2734 24.0981ZM22.4084 24.0981C21.9822 24.0981 21.6368 23.7129 21.6368 23.2376C21.6368 22.7622 21.9822 22.3771 22.4084 22.3771C22.8346 22.3771 23.18 22.7622 23.18 23.2376C23.18 23.7129 22.8346 24.0981 22.4084 24.0981Z" fill="white"/>
</svg>
